<?xml version="1.0" encoding="UTF-8" standalone="no"?>
<svg viewBox="0 0 339 336" version="1.1" xmlns="http://www.w3.org/2000/svg" xmlns:xlink="http://www.w3.org/1999/xlink" xmlns:sketch="http://www.bohemiancoding.com/sketch/ns">
    <!-- Generator: Sketch 3.3.3 (12081) - http://www.bohemiancoding.com/sketch -->
    <title>Imported Layers Copy</title>
    <desc>Created with Sketch.</desc>
    <defs></defs>
    <g id="Page-1" stroke="none" stroke-width="1" fill="none" fill-rule="evenodd" sketch:type="MSPage">
        <path d="M252.509715,183.736759 C228.337315,191.319559 203.399515,185.249759 203.470715,152.942759 C203.524115,103.690159 319.188515,62.3763593 335.261915,19.3359593 C339.249115,8.56695929 339.462715,-0.244040708 334.354115,0.00515929181 C330.651715,0.254359292 333.553115,5.59435929 325.418515,13.7289593 C277.518715,61.6643593 197.205115,61.5753593 135.581515,89.1831593 C95.1755148,107.339159 -23.2478852,163.053159 4.03951481,287.332759 C5.30331481,293.242359 8.84551481,313.000359 12.4411148,313.000359 C16.6597148,313.000359 16.6241148,301.252359 16.4995148,287.012359 C15.5917148,212.999959 103.256715,192.334159 131.754515,143.971559 C135.172115,138.222159 141.063915,130.105359 142.452315,133.861159 C143.128715,135.712359 142.701515,138.382359 141.544515,143.526559 C132.626715,183.256159 91.0459148,208.763559 102.829515,237.172359 C118.101915,274.018359 162.156915,246.552959 175.684915,222.843359 C179.316115,216.328559 181.327515,212.163359 183.748315,212.999959 C185.599515,213.622959 185.528315,221.098959 184.371315,227.862959 C177.162315,270.618559 167.301115,294.630759 136.026515,318.963359 C126.005115,326.759759 110.269915,328.379559 112.334715,334.360359 C112.850915,335.926759 119.650515,335.766559 125.061715,335.214759 C208.383515,329.874759 278.106115,231.600959 296.546915,167.396359 C298.504915,162.910759 299.074515,158.656559 297.045315,157.072359 C294.517715,155.132159 290.868715,159.582159 287.130715,162.892959 C277.625515,171.241159 264.560315,179.980959 252.509715,183.736759" id="Imported-Layers-Copy" opacity="0.15" fill="#FFFFFF" sketch:type="MSShapeGroup"></path>
    </g>
</svg>